<?xml version="1.0" standalone="no"?>
<!DOCTYPE svg PUBLIC "-//W3C//DTD SVG 20010904//EN"
 "http://www.w3.org/TR/2001/REC-SVG-20010904/DTD/svg10.dtd">
<svg version="1.0" xmlns="http://www.w3.org/2000/svg"
 width="349.000000pt" height="349.000000pt" viewBox="0 0 349.000000 349.000000"
 preserveAspectRatio="xMidYMid meet">
<metadata>
Created by potrace 1.16, written by Peter Selinger 2001-2019
</metadata>
<g transform="translate(0.000000,349.000000) scale(0.100000,-0.100000)"
fill="#000000" stroke="none">
<path d="M1760 2265 l0 -595 515 0 515 0 0 575 c0 562 0 575 -20 595 -19 19
-33 20 -515 20 l-495 0 0 -595z m490 210 l23 -25 25 25 c24 24 28 25 173 25
l149 0 2 -210 c1 -115 2 -218 2 -227 1 -15 -13 -17 -124 -18 -176 -2 -178 -2
-205 -29 -19 -19 -25 -21 -29 -9 -12 29 -70 42 -197 42 -68 0 -130 0 -136 1
-10 0 -13 52 -13 225 l0 225 153 0 c150 0 154 0 177 -25z"/>
<path d="M1760 1044 l0 -591 53 12 c278 68 316 78 311 87 -4 6 1 8 14 4 27 -9
364 77 427 109 111 56 190 164 215 290 7 39 10 166 8 368 l-3 308 -513 2 -512
2 0 -591z m585 520 c33 -8 68 -16 77 -17 9 -1 14 -6 11 -11 -4 -5 1 -7 10 -3
9 3 16 3 15 -1 -2 -8 104 -117 113 -115 3 1 6 -3 6 -10 0 -7 2 -19 4 -27 3
-13 -19 -15 -153 -18 l-158 -3 0 -49 c0 -47 2 -50 37 -66 126 -61 174 -205
122 -375 -16 -54 -25 -69 -40 -69 -17 0 -19 -8 -19 -65 0 -40 -5 -67 -12 -72
-7 -4 -18 -17 -24 -28 -6 -11 -18 -21 -26 -23 -19 -4 -51 26 -43 39 4 5 0 9
-8 9 -22 0 -27 22 -27 116 0 77 -2 84 -20 84 -34 0 -117 36 -158 69 -22 17
-43 27 -47 23 -5 -4 -5 -2 -2 4 3 6 -7 25 -23 42 -16 18 -27 32 -26 32 2 0 -7
29 -20 65 -44 121 -24 243 57 346 16 20 25 40 21 44 -4 5 -2 5 4 2 6 -3 22 5
37 19 15 14 27 22 27 18 0 -3 7 -1 15 6 20 17 124 49 160 49 17 1 57 -6 90
-15z"/>
<path d="M2155 1532 c-98 -41 -156 -96 -197 -189 -16 -36 -22 -68 -22 -128 0
-94 27 -165 89 -233 36 -41 142 -102 176 -102 45 0 49 -8 49 -106 0 -87 1 -94
20 -94 15 0 20 -7 20 -25 0 -16 6 -25 15 -25 9 0 15 9 15 25 0 16 6 25 15 25
12 0 15 14 15 69 0 65 2 70 22 73 33 4 51 65 52 174 1 84 -1 94 -29 140 -25
39 -43 55 -95 81 -36 17 -77 34 -92 37 -22 5 -28 2 -37 -25 -10 -30 -12 -31
-33 -17 -31 20 -68 95 -68 138 0 63 47 121 142 175 42 24 43 25 13 24 -16 0
-48 -8 -70 -17z"/>
</g>
</svg>
